<?xml version="1.0" ?><svg style="enable-background:new 0 0 32 32;" version="1.1" viewBox="0 0 32 32" xml:space="preserve" xmlns="http://www.w3.org/2000/svg" xmlns:xlink="http://www.w3.org/1999/xlink"><style type="text/css">
	.st0{fill:#B9F3F8;}
	.st1{fill:#55C1FA;}
	.st2{fill:#FBC34E;}
	.st3{opacity:0.05;}
	.st4{fill:#FFFFFF;}
	.st5{fill:#7A442A;}
	.st6{fill:#C77C58;}
	.st7{fill:#E4EDF2;}
	.st8{fill:#F25949;}
	.st9{fill:#FA9B55;}
	.st10{fill:#E5A533;}
	.st11{fill:#6FA7AB;}
	.st12{fill:#20A56C;}
	.st13{fill:#F2C09E;}
	.st14{fill:#F4E8D0;}
	.st15{fill:#F2AB38;}
	.st16{fill:#393B3D;}
	.st17{fill:#ACE4E5;}
	.st18{fill:#659899;}
	.st19{fill:#E3FAFC;}
	.st20{fill:#DDF1F2;}
	.st21{fill:#16F293;}
	.st22{fill:#5C3320;}
	.st23{fill:#AD410D;}
	.st24{fill:#8B9CA5;}
	.st25{fill:#B26C50;}
	.st26{fill:#DAE1E5;}
	.st27{fill:#425158;}
	.st28{fill:#829299;}
	.st29{fill:#A5795C;}
	.st30{fill:#7A7468;}
	.st31{fill:#7B3ABF;}
	.st32{fill:#B564FF;}
	.st33{fill:#2B617D;}
</style><g id="Magnifier"/><g id="Gear"/><g id="Home"/><g id="Shield"/><g id="Star"/><g id="Flash"/><g id="Heart"/><g id="Hearts"/><g id="Shopping_Bag"/><g id="Token"/><g id="Warning"/><g id="Warning_B"/><g id="Chat"/><g id="Diamond"/><g id="Hanger"/><g id="Warning_C"/><g id="Potion"/><g id="Hourglass"/><g id="Trophy"/><g id="Bomb"/><g id="Gem"/><g id="Spell_Book"/><g id="User"/><g id="Users"/><g id="Treasure_Chest"/><g id="Treasure_Chest_Open"/><g id="Sack"/><g id="Fishing_Pin"/><g id="Sword"/><g id="Sword_And_Shield"/><g id="Backpack"/><g id="Key"/><g id="Meat"/><g id="Skull"/><g id="Store"/><g id="Helmet"/><g id="Anvil"/><g id="Axe"/><g id="Spear"/><g id="Food"/><g id="Bow"/><g id="Scroll"/><g id="Armor"/><g id="Hat"/><g id="Wand"/><g id="Map"/><g id="Mushroom"/><g id="Feather"/><g id="Wings"/><g id="Fish"><g><path class="st1" d="M29.607,15.853c-1.79-2.284-4.421-3.97-7.444-4.778c-1.269-2.093-3.539-3.636-6.752-4.591    c-0.737-0.225-1.526-0.017-2.056,0.546c-0.52,0.552-0.678,1.337-0.417,2.04c0.304,0.841,0.379,1.542,0.23,2.167    c-1.974,0.615-3.758,1.612-5.229,2.921l-3.401-3.151c-0.522-0.468-1.268-0.522-1.856-0.134c-0.581,0.384-0.821,1.083-0.602,1.73    c0.969,2.944,0.969,5.812,0.003,8.756c-0.223,0.657,0.018,1.356,0.6,1.74c0.592,0.39,1.335,0.333,1.868-0.146l3.421-3.179    c2.088,1.856,4.776,3.07,7.708,3.502l0.201,0.823c0.179,0.695,0.694,1.229,1.379,1.43c0.188,0.056,0.379,0.082,0.567,0.082    c0.494,0,0.975-0.186,1.348-0.532l2.147-1.963c3.405-0.702,6.342-2.447,8.299-4.965C30.131,17.469,30.127,16.527,29.607,15.853z     M23.015,16c0-0.553,0.443-1,0.995-1h0.01c0.553,0,1,0.447,1,1s-0.447,1-1,1C23.468,17,23.015,16.553,23.015,16z"/><path class="st33" d="M25.02,16c0-0.553-0.447-1-1-1h-0.01c-0.552,0-0.995,0.447-0.995,1s0.453,1,1.005,1    C24.572,17,25.02,16.553,25.02,16z"/></g></g></svg>